#!OML:ASF F:\VICON\USERDATA\INSTALL\rory3\rory3.ASF
:FULLY-SPECIFIED
:DEGREES
2513
root 0.685757 16.3608 -2.13835 5.04869 -4.70914 2.90841
lowerback 25.5127 -1.571 2.75052
upperback 13.6908 -1.37251 4.79263
thorax 1.1227 -0.769362 3.96745
lowerneck -2.10199 -9.38323 -18.8611
upperneck -8.29277 -11.6051 34.8291
head 1.80001 -6.16747 14.4015
rclavicle 1.59028e-014 3.33958e-014
rhumerus 41.0042 33.028 -42.8459
rradius 51.0109
rwrist 14.0871
rhand -13.8752 11.415
rfingers 7.12502
rthumb 12.2494 -18.2063
lclavicle 1.59028e-014 3.33958e-014
lhumerus 67.9833 -26.672 7.3789
lradius 39.9047
lwrist 2.5638
lhand -2.20908 24.1666
lfingers 7.12502
lthumb 23.4728 52.7546
rfemur -32.8275 0.628763 12.3281
rtibia 48.1168
rfoot -22.879 0.447975
rtoes -20.5954
lfemur -31.7823 2.71796 -22.9982
ltibia 48.1278
lfoot -19.6719 -0.52017
ltoes -18.1397
2514
root 0.667213 16.3772 -2.13066 5.00001 -4.99402 2.91447
lowerback 25.4577 -1.66888 2.21955
upperback 13.7494 -1.62309 4.60138
thorax 1.23275 -0.919576 4.11744
lowerneck -2.32063 -9.29708 -19.1211
upperneck -8.02266 -11.5252 34.6696
head 1.89047 -6.08735 14.3836
rclavicle 1.27222e-014 -2.14687e-014
rhumerus 41.7898 33.7234 -41.2438
rradius 51.4968
rwrist 13.6606
rhand -13.8377 11.3435
rfingers 7.12502
rthumb 12.2856 -18.2756
lclavicle 1.27222e-014 -2.14687e-014
lhumerus 66.5822 -26.3631 10.436
lradius 39.2178
lwrist 1.68057
lhand -2.60298 24.2953
lfingers 7.12502
lthumb 23.0949 52.9312
rfemur -32.6127 0.822704 12.396
rtibia 47.758
rfoot -22.7576 0.544934
rtoes -20.5728
lfemur -31.5327 2.78861 -22.9203
ltibia 47.9187
lfoot -19.7063 -0.31194
ltoes -18.3142
2515
root 0.648124 16.3951 -2.12229 5.00777 -5.24838 2.70561
lowerback 25.4413 -1.79274 1.88503
upperback 13.8653 -1.86508 4.47639
thorax 1.391 -1.0594 4.2263
lowerneck -2.94482 -9.30142 -19.3172
upperneck -7.74203 -11.5231 34.4517
head 2.07133 -6.01374 14.2927
rclavicle 3.97569e-015 6.83819e-014
rhumerus 42.8011 34.2883 -39.3973
rradius 52.0037
rwrist 13.1884
rhand -13.911 11.28
rfingers 7.12502
rthumb 12.215 -18.3433
lclavicle 3.97569e-015 6.83819e-014
lhumerus 65.1026 -25.7744 13.6023
lradius 38.6813
lwrist 0.817724
lhand -3.03172 24.6334
lfingers 7.12502
lthumb 22.6835 53.3203
rfemur -32.4033 1.06454 12.7065
rtibia 47.3461
rfoot -22.6286 0.529085
rtoes -20.7709
lfemur -31.3384 2.87409 -22.6022
ltibia 47.7304
lfoot -19.5034 -0.172246
ltoes -18.4266
2516
root 0.63041 16.4159 -2.11442 5.06684 -5.42723 2.43989
lowerback 25.3895 -1.93462 1.74684
upperback 13.9138 -2.08678 4.28962
thorax 1.4797 -1.17308 4.14911
lowerneck -3.24793 -9.26748 -19.273
upperneck -7.73667 -11.4401 34.1533
head 2.06931 -5.94415 14.1523
rclavicle 1.27222e-014 -2.22639e-014
rhumerus 43.6559 34.7945 -37.6342
rradius 52.5105
rwrist 12.6704
rhand -13.9791 11.151
rfingers 7.12502
rthumb 12.1493 -18.4762
lclavicle 1.27222e-014 -2.22639e-014
lhumerus 63.7652 -25.2061 16.6042
lradius 38.3248
lwrist 0.138409
lhand -2.95979 25.1819
lfingers 7.12502
lthumb 22.7526 53.8603
rfemur -32.2099 1.26855 13.0747
rtibia 46.9017
rfoot -22.4307 0.531197
rtoes -20.8527
lfemur -31.2064 2.83549 -22.2154
ltibia 47.5621
lfoot -19.2686 -0.0127977
ltoes -18.5753
2517
root 0.612785 16.4378 -2.10546 5.12068 -5.59568 2.1554
lowerback 25.2964 -2.08152 1.6521
upperback 13.8818 -2.30354 4.07353
thorax 1.49199 -1.2787 4.01287
lowerneck -3.24518 -9.17432 -19.3325
upperneck -7.73462 -11.3116 33.9914
head 2.01872 -5.87736 14.116
rclavicle -1.19271e-014 1.51076e-014
rhumerus 44.3372 35.3979 -35.9616
rradius 53.0377
rwrist 12.1493
rhand -14.0591 11.1839
rfingers 7.12502
rthumb 12.0721 -18.4479
lclavicle -1.19271e-014 1.51076e-014
lhumerus 62.3339 -24.682 19.981
lradius 37.8044
lwrist -0.707944
lhand -3.06026 25.1869
lfingers 7.12502
lthumb 22.6561 53.8771
rfemur -31.9913 1.4853 13.4521
rtibia 46.4356
rfoot -22.1905 0.620788
rtoes -20.7491
lfemur -31.0685 2.82221 -21.8067
ltibia 47.4041
lfoot -19.1889 0.114379
ltoes -18.6043
2518
root 0.593127 16.4565 -2.09711 5.18595 -5.79069 1.9543
lowerback 25.1645 -2.16229 1.32488
upperback 13.8507 -2.48399 3.93791
thorax 1.53492 -1.3842 4.08685
lowerneck -3.36048 -9.11544 -19.5648
upperneck -7.6253 -11.2381 33.8335
head 2.04719 -5.81868 14.101
rclavicle 3.97569e-015 4.92986e-014
rhumerus 45.0287 35.9385 -34.2214
rradius 53.6035
rwrist 11.6884
rhand -13.9323 11.2507
rfingers 7.12502
rthumb 12.1944 -18.3739
lclavicle 3.97569e-015 4.92986e-014
lhumerus 60.7915 -24.0642 23.5688
lradius 37.2725
lwrist -1.61381
lhand -3.91109 24.5255
lfingers 7.12502
lthumb 21.8393 53.3131
rfemur -31.8097 1.68945 13.751
rtibia 45.9784
rfoot -21.9791 0.637056
rtoes -20.7856
lfemur -30.9661 2.86168 -21.4891
ltibia 47.2305
lfoot -19.0436 0.211264
ltoes -18.4944
2519
root 0.572787 16.4761 -2.08833 5.24965 -5.98961 1.88018
lowerback 25.0527 -2.20209 0.997978
upperback 13.7892 -2.61001 3.71558
thorax 1.52592 -1.45672 4.05445
lowerneck -3.34299 -9.10256 -19.7451
upperneck -7.62553 -11.2257 33.7341
head 2.04198 -5.80904 14.0985
rclavicle 2.94201e-014 1.59028e-015
rhumerus 45.5219 36.3852 -32.5741
rradius 54.2251
rwrist 11.1922
rhand -13.6954 11.2528
rfingers 7.12502
rthumb 12.4228 -18.3581
lclavicle 2.94201e-014 1.59028e-015
lhumerus 59.4356 -23.4276 26.9948
lradius 36.8056
lwrist -2.47949
lhand -4.61027 23.8693
lfingers 7.12502
lthumb 21.1678 52.7337
rfemur -31.6297 1.83786 13.9133
rtibia 45.5133
rfoot -21.8039 0.725814
rtoes -20.8445
lfemur -30.8569 2.90409 -21.3222
ltibia 47.0485
lfoot -18.9109 0.306684
ltoes -18.2829
2520
root 0.55491 16.5004 -2.07789 5.28975 -6.13981 1.81884
lowerback 24.9503 -2.28577 0.666133
upperback 13.7413 -2.79219 3.4802
thorax 1.53229 -1.55716 4.02352
lowerneck -3.42522 -9.10271 -19.7975
upperneck -7.54951 -11.2344 33.522
head 2.06048 -5.79857 14.013
rclavicle 3.33958e-014 1.11319e-014
rhumerus 46.2988 36.8645 -30.6919
rradius 54.81
rwrist 10.5237
rhand -13.5729 11.0427
rfingers 7.12502
rthumb 12.5409 -18.561
lclavicle 3.33958e-014 1.11319e-014
lhumerus 58.1135 -22.5302 30.3971
lradius 36.1821
lwrist -3.14915
lhand -5.19394 23.0455
lfingers 7.12502
lthumb 20.6071 51.9717
rfemur -31.3886 1.89042 14.0562
rtibia 45.0369
rfoot -21.6429 0.887086
rtoes -20.881
lfemur -30.6793 2.79696 -21.1646
ltibia 46.8497
lfoot -18.8567 0.463923
ltoes -18.0238
2521
root 0.534759 16.5236 -2.06869 5.35167 -6.31051 1.54635
lowerback 24.8294 -2.36759 0.491785
upperback 13.6694 -2.93944 3.2844
thorax 1.51312 -1.63254 3.93782
lowerneck -3.31116 -9.05711 -19.8298
upperneck -7.60772 -11.1752 33.3119
head 1.98648 -5.77664 13.9466
rclavicle 3.93594e-014 -6.12257e-014
rhumerus 47.1009 37.4108 -28.7593
rradius 55.3854
rwrist 9.78126
rhand -13.7148 10.9735
rfingers 7.12502
rthumb 12.4041 -18.6385
lclavicle 3.93594e-014 -6.12257e-014
lhumerus 56.8265 -21.5466 33.8668
lradius 35.4813
lwrist -3.74213
lhand -5.06622 21.9764
lfingers 7.12502
lthumb 20.7298 50.8892
rfemur -31.1515 2.11484 14.4287
rtibia 44.5366
rfoot -21.4283 0.916109
rtoes -20.755
lfemur -30.5467 2.76004 -20.7558
ltibia 46.6708
lfoot -18.7234 0.48194
ltoes -17.172
2522
root 0.514007 16.5436 -2.06123 5.39854 -6.46041 1.34394
lowerback 24.7437 -2.44813 0.157469
upperback 13.5874 -3.11488 3.10808
thorax 1.47862 -1.73199 3.97257
lowerneck -3.20231 -8.97213 -19.974
upperneck -7.62431 -11.0676 33.1694
head 1.92581 -5.72722 13.9384
rclavicle 3.18055e-014 1.19271e-014
rhumerus 48.01 37.9425 -26.7516
rradius 55.9795
rwrist 9.09626
rhand -13.4294 11.3113
rfingers 7.12502
rthumb 12.6792 -18.2838
lclavicle 3.18055e-014 1.19271e-014
lhumerus 55.6227 -20.845 36.6565
lradius 35.735
lwrist -3.72839
lhand -3.73959 23.8716
lfingers 7.12502
lthumb 22.004 52.6399
rfemur -30.9055 2.36555 14.7169
rtibia 44.0274
rfoot -21.1564 0.963624
rtoes -20.1159
lfemur -30.4203 2.74873 -20.4125
ltibia 46.4863
lfoot -18.5333 0.418964
ltoes -16.4318
